<svg width="637" height="616" viewBox="0 0 637 616" fill="none" xmlns="http://www.w3.org/2000/svg">
<g clip-path="url(#clip0_421_1577)">
<path d="M0.222547 303.144H85.3897C85.5132 303.144 85.6133 302.856 85.6133 302.5C85.6133 302.145 85.5132 301.857 85.3897 301.857H0.222547C0.0989914 301.857 -0.00105171 302.145 -0.00105171 302.5C-0.00105171 302.856 0.0989914 303.144 0.222547 303.144Z" fill="#E6E6E6"/>
<path d="M55.1763 293.022C55.1763 293.022 61.255 298.135 64.4538 297.814C67.6526 297.493 73.7317 297.495 71.1718 301.009C68.6119 304.522 58.0552 306.439 53.5762 306.758C49.0972 307.078 39.1799 307.397 39.8198 305.481C40.4596 303.564 41.0995 294.62 43.6589 293.981C46.2183 293.342 55.1763 293.022 55.1763 293.022Z" fill="#090814"/>
<path d="M32.0708 293.022C32.0708 293.022 38.1495 298.135 41.3483 297.814C44.5471 297.493 50.6262 297.495 48.0663 301.009C45.5064 304.522 34.9498 306.439 30.4708 306.758C25.9918 307.078 16.0744 307.397 16.7143 305.481C17.3542 303.564 17.994 294.62 20.5534 293.981C23.1129 293.342 32.0708 293.022 32.0708 293.022Z" fill="#090814"/>
<path d="M18.269 180.602L18.284 294.711C18.2962 295.426 18.284 296.582 18.284 296.582C18.284 296.582 20.3812 297.295 21.0948 297.231H32.7926C33.399 297.176 33.9663 296.908 34.394 296.475C34.8217 296.042 35.0822 295.473 35.1293 294.866L39.9588 221.967C39.9723 221.804 40.0476 221.652 40.1693 221.543C40.291 221.433 40.45 221.374 40.6138 221.377C40.7777 221.38 40.9342 221.446 41.0515 221.56C41.1687 221.674 41.2379 221.829 41.2451 221.992L42.3956 292.577C42.4482 293.96 40.7513 296.582 42.1353 296.582L58.291 295.568C59.6534 295.568 58.9355 294.723 59.0187 293.363L65.957 179.958L24.7131 169.663L18.269 180.602Z" fill="#2F2E41"/>
<path d="M53.9578 79.9847C57.2963 78.6794 60.0921 76.2813 61.8876 73.1827C63.6831 70.0842 64.3719 66.4688 63.8413 62.9285C63.3107 59.3881 61.5921 56.1324 58.9668 53.6944C56.3415 51.2564 52.9651 49.7805 49.3902 49.5083C45.8153 49.236 42.2538 50.1836 39.2886 52.1959C36.3234 54.2081 34.1302 57.1659 33.0679 60.585C32.0057 64.004 32.1375 67.6819 33.4416 71.0165C34.7457 74.3511 37.1449 77.1448 40.2465 78.9405L38.4796 88.1813L53.9578 89.8601V79.9847Z" fill="#ED9DA0"/>
<path d="M127.17 173.089H440.044C442.949 173.086 445.734 171.933 447.788 169.882C449.841 167.831 450.997 165.051 451 162.15V10.9389C450.997 8.0387 449.841 5.25823 447.788 3.20749C445.734 1.15675 442.949 0.00322808 440.044 0H127.17C124.266 0.00322808 121.481 1.15675 119.427 3.20749C117.373 5.25823 116.218 8.0387 116.215 10.9389V162.151C116.218 165.051 117.373 167.831 119.427 169.882C121.481 171.933 124.266 173.086 127.17 173.089ZM440.044 1.28668C442.608 1.28903 445.065 2.30666 446.878 4.11623C448.691 5.9258 449.71 8.37951 449.713 10.9389V162.151C449.71 164.71 448.691 167.163 446.879 168.972C445.067 170.782 442.61 171.8 440.047 171.803H127.17C124.607 171.8 122.151 170.782 120.338 168.972C118.526 167.163 117.507 164.71 117.504 162.151V10.9389C117.507 8.37999 118.526 5.92677 120.338 4.11736C122.151 2.30796 124.607 1.29013 127.17 1.28715L440.044 1.28668Z" fill="#3F3D56"/>
<path d="M390.907 37.6425C387.704 37.6425 385.107 35.0497 385.107 31.8513C385.107 28.6528 387.704 26.06 390.907 26.06C394.11 26.06 396.707 28.6528 396.707 31.8513C396.707 35.0497 394.11 37.6425 390.907 37.6425Z" fill="#CCCCCC"/>
<path d="M390.907 59.5202C387.704 59.5202 385.107 56.9274 385.107 53.729C385.107 50.5306 387.704 47.9378 390.907 47.9378C394.11 47.9378 396.707 50.5306 396.707 53.729C396.707 56.9274 394.11 59.5202 390.907 59.5202Z" fill="#CCCCCC"/>
<path d="M390.907 81.3975C387.704 81.3975 385.107 78.8047 385.107 75.6063C385.107 72.4079 387.704 69.815 390.907 69.815C394.11 69.815 396.707 72.4079 396.707 75.6063C396.707 78.8047 394.11 81.3975 390.907 81.3975Z" fill="#CCCCCC"/>
<path d="M390.907 103.275C387.704 103.275 385.107 100.682 385.107 97.4835C385.107 94.2851 387.704 91.6923 390.907 91.6923C394.11 91.6923 396.707 94.2851 396.707 97.4835C396.707 100.682 394.11 103.275 390.907 103.275Z" fill="#CCCCCC"/>
<path d="M293.274 147.03C290.071 147.03 287.474 144.437 287.474 141.239C287.474 138.041 290.071 135.448 293.274 135.448C296.477 135.448 299.074 138.041 299.074 141.239C299.074 144.437 296.477 147.03 293.274 147.03Z" fill="#CCCCCC"/>
<path d="M335.161 147.03C331.958 147.03 329.361 144.437 329.361 141.239C329.361 138.041 331.958 135.448 335.161 135.448C338.364 135.448 340.961 138.041 340.961 141.239C340.961 144.437 338.364 147.03 335.161 147.03Z" fill="#CCCCCC"/>
<path d="M206.919 147.03C203.715 147.03 201.119 144.437 201.119 141.239C201.119 138.041 203.715 135.448 206.919 135.448C210.122 135.448 212.719 138.041 212.719 141.239C212.719 144.437 210.122 147.03 206.919 147.03Z" fill="#CCCCCC"/>
<path d="M250.739 147.03C247.536 147.03 244.939 144.437 244.939 141.239C244.939 138.041 247.536 135.448 250.739 135.448C253.942 135.448 256.539 138.041 256.539 141.239C256.539 144.437 253.942 147.03 250.739 147.03Z" fill="#CCCCCC"/>
<path d="M171.153 32.4944H361.906C362.077 32.4944 362.241 32.4266 362.362 32.3059C362.483 32.1852 362.551 32.0215 362.551 31.8508C362.551 31.6801 362.483 31.5164 362.362 31.3957C362.241 31.275 362.077 31.2072 361.906 31.2072H171.153C170.982 31.2072 170.818 31.275 170.697 31.3957C170.576 31.5164 170.508 31.6801 170.508 31.8508C170.508 32.0215 170.576 32.1852 170.697 32.3059C170.818 32.4266 170.982 32.4944 171.153 32.4944Z" fill="#CCCCCC"/>
<path d="M171.155 54.3716H361.908C362.076 54.3671 362.235 54.2973 362.352 54.1772C362.47 54.057 362.535 53.896 362.535 53.7283C362.535 53.5606 362.47 53.3996 362.352 53.2794C362.235 53.1592 362.076 53.0895 361.908 53.085H171.155C170.987 53.0895 170.827 53.1592 170.71 53.2794C170.593 53.3996 170.528 53.5606 170.528 53.7283C170.528 53.896 170.593 54.057 170.71 54.1772C170.827 54.2973 170.987 54.3671 171.155 54.3716Z" fill="#CCCCCC"/>
<path d="M171.153 76.2498H361.906C362.077 76.2498 362.241 76.1821 362.362 76.0614C362.483 75.9407 362.551 75.777 362.551 75.6063C362.551 75.4356 362.483 75.2719 362.362 75.1512C362.241 75.0305 362.077 74.9627 361.906 74.9627H171.153C170.982 74.9627 170.818 75.0305 170.697 75.1512C170.576 75.2719 170.508 75.4356 170.508 75.6063C170.508 75.777 170.576 75.9407 170.697 76.0614C170.818 76.1821 170.982 76.2498 171.153 76.2498Z" fill="#CCCCCC"/>
<path d="M171.155 98.1271H361.908C362.076 98.1226 362.235 98.0528 362.352 97.9327C362.47 97.8125 362.535 97.6515 362.535 97.4838C362.535 97.3161 362.47 97.1551 362.352 97.0349C362.235 96.9147 362.076 96.845 361.908 96.8405H171.155C170.987 96.845 170.827 96.9147 170.71 97.0349C170.593 97.1551 170.528 97.3161 170.528 97.4838C170.528 97.6515 170.593 97.8125 170.71 97.9327C170.827 98.0528 170.987 98.1226 171.155 98.1271Z" fill="#CCCCCC"/>
<path d="M325.82 120.005H344.508C345.362 120.004 346.181 119.665 346.786 119.061C347.39 118.458 347.729 117.64 347.73 116.787V99.4143C347.729 98.5613 347.39 97.7435 346.786 97.1403C346.181 96.5372 345.362 96.1979 344.508 96.1969H325.82C324.966 96.1979 324.147 96.5372 323.542 97.1403C322.938 97.7435 322.599 98.5613 322.598 99.4143V116.789C322.599 117.642 322.938 118.46 323.542 119.063C324.147 119.666 324.966 120.006 325.82 120.007V120.005Z" fill="#023E8A"/>
<path d="M283.929 120.004H302.618C303.472 120.003 304.291 119.664 304.895 119.061C305.499 118.458 305.839 117.64 305.84 116.787V77.5365C305.839 76.6835 305.499 75.8657 304.895 75.2626C304.291 74.6594 303.472 74.3201 302.618 74.3191H283.929C283.075 74.3201 282.256 74.6594 281.652 75.2626C281.048 75.8657 280.708 76.6835 280.707 77.5365V116.787C280.708 117.64 281.048 118.458 281.652 119.061C282.256 119.665 283.075 120.003 283.929 120.004Z" fill="#023E8A"/>
<path d="M241.398 120.005H260.086C260.941 120.004 261.76 119.665 262.364 119.061C262.968 118.458 263.308 117.64 263.309 116.787V55.6593C263.308 54.8062 262.968 53.9885 262.364 53.3853C261.76 52.7821 260.941 52.4428 260.086 52.4418H241.398C240.544 52.4428 239.725 52.7821 239.121 53.3853C238.516 53.9885 238.177 54.8062 238.176 55.6593V116.787C238.177 117.64 238.516 118.458 239.121 119.061C239.725 119.665 240.544 120.004 241.398 120.005Z" fill="#023E8A"/>
<path d="M197.574 120.004H216.262C217.116 120.003 217.935 119.664 218.539 119.06C219.144 118.457 219.483 117.64 219.484 116.787V34.4251C219.483 33.5721 219.144 32.7543 218.539 32.1511C217.935 31.548 217.116 31.2087 216.262 31.2077H197.574C196.719 31.2087 195.9 31.548 195.296 32.1511C194.692 32.7543 194.352 33.5721 194.351 34.4251V116.787C194.352 117.64 194.692 118.458 195.296 119.061C195.9 119.665 196.719 120.004 197.574 120.005V120.004Z" fill="#023E8A"/>
<path d="M112.517 121.587C112.913 121.586 113.309 121.546 113.698 121.468C113.769 121.454 113.84 121.439 113.911 121.421L199.35 101.56C200.278 101.344 200.895 100.762 200.784 100.204C200.738 100.039 200.647 99.8912 200.521 99.7753C200.396 99.6594 200.24 99.5804 200.073 99.547C199.66 99.4335 199.226 99.4238 198.809 99.5189L112.837 117.446C110.902 117.849 109.558 119.035 109.778 120.146C109.893 120.727 110.406 121.178 111.222 121.414C111.643 121.532 112.079 121.59 112.517 121.587Z" fill="#3F3D56"/>
<path d="M118 125.583C117.183 126.062 116.271 126.357 115.328 126.446C114.385 126.536 113.434 126.417 112.541 126.1C111.649 125.782 110.837 125.273 110.163 124.609C109.489 123.944 108.969 123.14 108.64 122.253L85.6165 122.733L91.9948 112.623L112.881 113.717C114.411 113.262 116.054 113.383 117.501 114.058C118.947 114.733 120.095 115.914 120.726 117.378C121.358 118.841 121.429 120.486 120.927 121.999C120.425 123.512 119.384 124.788 118.002 125.585L118 125.583Z" fill="#ED9DA0"/>
<path d="M107.997 121.911L108.117 114.864C108.125 114.138 107.861 113.434 107.377 112.892C106.892 112.35 106.222 112.009 105.498 111.935L64.1243 107.948L29.6533 96.6626C28.6177 96.3401 27.5287 96.2245 26.4483 96.3222C25.3679 96.4199 24.3174 96.7292 23.3568 97.2323C22.3961 97.7354 21.5441 98.4226 20.8494 99.2544C20.1546 100.086 19.6308 101.047 19.3078 102.081C18.9848 103.115 18.869 104.202 18.9669 105.281C19.0648 106.36 19.3745 107.409 19.8784 108.368C20.3823 109.327 21.0704 110.178 21.9036 110.871C22.7367 111.565 23.6986 112.088 24.7342 112.41L62.8878 123.688L105.025 124.757C105.408 124.767 105.79 124.702 106.147 124.564C106.504 124.426 106.831 124.219 107.107 123.954C107.384 123.689 107.605 123.372 107.758 123.022C107.911 122.671 107.992 122.293 107.998 121.911H107.997Z" fill="#3F3D56"/>
<path d="M67.3705 183.926C67.6448 183.662 67.8637 183.345 68.0147 182.996C68.1657 182.646 68.2456 182.27 68.25 181.89L69.3178 105.677C69.3818 101.8 68.2136 98.0027 65.981 94.8302C63.7485 91.6578 60.5664 89.2734 56.8918 88.0194C55.4092 81.3023 47.5167 80.4607 42.9155 80.5611C41.7672 80.5858 40.6417 80.8866 39.6345 81.4381C38.6274 81.9895 37.7683 82.7753 37.13 83.7288L33.8321 88.6686L26.5625 92.9232C23.1983 94.8838 20.5448 97.8607 18.9846 101.425C17.4244 104.988 17.0382 108.955 17.8817 112.752L19.0008 117.835C22.9418 135.826 22.5669 154.492 17.9066 172.31L15.6544 180.884C15.5371 181.331 15.5284 181.799 15.6291 182.249C15.7298 182.7 15.9369 183.12 16.2332 183.474C16.5295 183.828 16.9064 184.107 17.3325 184.286C17.7585 184.466 18.2213 184.541 18.6823 184.505L21.2976 184.304C21.9766 184.253 22.6158 183.964 23.1029 183.489C23.59 183.014 23.8937 182.382 23.9608 181.706L24.3935 177.384C24.4016 177.304 24.4388 177.231 24.4981 177.177C24.5573 177.124 24.6343 177.094 24.7141 177.094C24.794 177.094 24.871 177.124 24.9302 177.177C24.9895 177.231 25.0267 177.304 25.0348 177.384L25.4538 181.568C25.5245 182.275 25.853 182.931 26.3769 183.412C26.9007 183.893 27.5833 184.164 28.2947 184.175L65.3053 184.744H65.3523C66.1062 184.745 66.8308 184.452 67.3705 183.926Z" fill="#3F3D56"/>
<path d="M45.5648 71.5642C45.508 73.5203 44.1479 74.6517 42.4783 75.6762C40.8086 76.7006 40.4624 77.6655 38.5503 78.0943C38.2935 78.2307 38.0059 78.2987 37.7151 78.2917C37.4243 78.2847 37.1402 78.2029 36.8903 78.0542C36.6404 77.9056 36.4331 77.6951 36.2885 77.4431C36.1439 77.1911 36.0668 76.9061 36.0647 76.6157L32.7052 69.4342C32.0848 67.3064 31.6333 65.1332 31.355 62.9346C30.9322 58.704 31.9366 54.1535 34.8939 51.0947C37.8513 48.0358 42.9795 46.9494 46.5236 49.3061C50.7292 43.9431 69.9521 55.792 65.2101 59.5216C64.3644 60.1849 63.0767 59.3457 62.0061 59.2641C60.9354 59.1825 59.7356 59.3706 59.0553 60.2023C58.1665 61.2863 58.5536 62.9009 58.1876 64.2532C58.0361 64.729 57.7918 65.1701 57.4687 65.5512C57.1456 65.9322 56.7502 66.2456 56.3052 66.4733C55.8602 66.7011 55.3745 66.8386 54.876 66.8779C54.3776 66.9173 53.8762 66.8578 53.4009 66.7027C52.5156 66.2667 51.6828 65.7317 50.9185 65.1079C50.0974 64.5619 49.0596 64.158 48.135 64.5027C46.9164 64.9568 46.4832 66.4466 46.3733 67.7394C46.1875 69.0302 45.9176 70.3076 45.5653 71.5633L45.5648 71.5642Z" fill="#2F2E41"/>
<path opacity="0.2" d="M50.6429 111.318L53.2206 142.847L66.7539 175.664L46.7765 143.491L50.6429 111.318Z" fill="black"/>
<path d="M69.9194 187.884C69.1807 187.292 68.581 186.545 68.1626 185.696C67.7442 184.848 67.5172 183.918 67.4977 182.972C67.4782 182.026 67.6665 181.088 68.0496 180.223C68.4326 179.357 69.001 178.587 69.7146 177.964L61.093 156.643L72.8232 159.008L79.2124 178.893C80.1795 180.159 80.6479 181.736 80.5286 183.324C80.4094 184.912 79.7109 186.401 78.5654 187.51C77.42 188.618 75.9072 189.268 74.3137 189.337C72.7202 189.406 71.1567 188.889 69.9194 187.884Z" fill="#ED9DA0"/>
<path d="M70.5478 178.48L77.1878 176.091C77.8719 175.841 78.4375 175.345 78.7733 174.699C79.1091 174.054 79.1907 173.306 79.0022 172.604L68.0485 132.569L66.3784 96.3854C66.3226 95.2972 66.0514 94.2308 65.5804 93.2479C65.1095 92.2649 64.4481 91.3849 63.6346 90.6586C62.8211 89.9323 61.8715 89.3742 60.8407 89.0165C59.8098 88.6588 58.7183 88.5086 57.629 88.5745C56.5397 88.6404 55.4743 88.9212 54.4943 89.4007C53.5143 89.8801 52.6392 90.5487 51.9195 91.3678C51.1998 92.1869 50.6498 93.1402 50.3012 94.1728C49.9526 95.2054 49.8124 96.2966 49.8887 97.3836L52.8723 137.003L66.8294 176.716C66.9554 177.078 67.152 177.41 67.4079 177.695C67.6637 177.98 67.9737 178.211 68.3198 178.375C68.6659 178.539 69.0412 178.633 69.4239 178.651C69.8066 178.669 70.1891 178.611 70.5492 178.48H70.5478Z" fill="#3F3D56"/>
<path d="M171.155 120.004H361.908C362.076 120 362.235 119.93 362.352 119.81C362.47 119.69 362.535 119.529 362.535 119.361C362.535 119.193 362.47 119.032 362.352 118.912C362.235 118.792 362.076 118.722 361.908 118.718H171.155C170.987 118.722 170.827 118.792 170.71 118.912C170.593 119.032 170.528 119.193 170.528 119.361C170.528 119.529 170.593 119.69 170.71 119.81C170.827 119.93 170.987 120 171.155 120.004Z" fill="#3F3D56"/>
</g>
<g clip-path="url(#clip1_421_1577)">
<path d="M527.744 67.6222L631.146 45.3731L632.489 45.0846C633.174 44.9361 633.886 44.9833 634.545 45.2208C635.203 45.4582 635.781 45.8763 636.212 46.4268C636.643 46.9774 636.91 47.6381 636.981 48.333C637.052 49.0279 636.925 49.7288 636.615 50.355L595.559 133.518C595.293 134.052 594.903 134.515 594.42 134.867C593.938 135.22 593.378 135.451 592.787 135.543C592.194 135.634 591.588 135.581 591.02 135.387C590.453 135.193 589.941 134.864 589.53 134.428L561.015 104.437C560.812 104.219 560.566 104.044 560.292 103.925C560.018 103.806 559.723 103.744 559.424 103.744C559.018 103.739 558.618 103.843 558.267 104.047C557.916 104.251 557.627 104.546 557.431 104.901L551.59 115.677C551.218 116.395 550.615 116.969 549.877 117.306C549.14 117.643 548.311 117.724 547.522 117.537L547.492 117.53C546.694 117.362 545.975 116.93 545.452 116.305C544.928 115.679 544.631 114.897 544.608 114.083L543.438 89.2076C543.424 88.8971 543.346 88.5929 543.209 88.3137C543.063 88.0375 542.864 87.7923 542.624 87.5917L526.173 74.1211C525.633 73.6784 525.228 73.0927 525.006 72.4311C524.783 71.7695 524.752 71.0587 524.916 70.3804C525.08 69.7021 525.432 69.0835 525.933 68.5957C526.433 68.1079 527.061 67.7705 527.744 67.6222ZM527.113 72.976L543.563 86.4462C543.777 86.6185 543.972 86.8142 544.142 87.0297L631.332 47.5872C631.409 47.5515 631.489 47.5234 631.572 47.5034C631.908 47.4171 632.264 47.4507 632.578 47.5984C632.892 47.7461 633.144 47.9986 633.292 48.3123C633.439 48.626 633.472 48.9811 633.384 49.3163C633.297 49.6515 633.095 49.9457 632.813 50.1481L561.124 102.676C561.487 102.865 561.816 103.114 562.094 103.414L590.61 133.406C590.857 133.665 591.164 133.862 591.504 133.978C591.844 134.094 592.206 134.127 592.562 134.073C592.917 134.019 593.254 133.881 593.544 133.67C593.834 133.458 594.068 133.18 594.228 132.859L635.282 49.6976C635.465 49.3218 635.539 48.9022 635.495 48.4866C635.451 48.0711 635.291 47.6761 635.033 47.3468C634.775 47.0175 634.429 46.7671 634.036 46.624C633.642 46.4809 633.216 46.4509 632.806 46.5375L631.432 46.8334L528.063 69.0752C527.652 69.1638 527.275 69.3659 526.975 69.6583C526.674 69.9508 526.462 70.3218 526.363 70.7288C526.264 71.1359 526.282 71.5626 526.414 71.96C526.547 72.3574 526.789 72.7095 527.113 72.976H527.113Z" fill="#023E8A"/>
<path d="M527.744 67.6222L631.146 45.3731L632.489 45.0846C633.174 44.9361 633.886 44.9833 634.545 45.2208C635.203 45.4582 635.781 45.8763 636.212 46.4268C636.643 46.9774 636.91 47.6381 636.981 48.333C637.052 49.0279 636.925 49.7288 636.615 50.355L595.559 133.518C595.293 134.052 594.903 134.515 594.42 134.867C593.938 135.22 593.378 135.451 592.787 135.543C592.194 135.634 591.588 135.581 591.02 135.387C590.453 135.193 589.941 134.864 589.53 134.428L561.015 104.437C560.812 104.219 560.566 104.044 560.292 103.925C560.018 103.806 559.723 103.744 559.424 103.744C559.018 103.739 558.618 103.843 558.267 104.047C557.916 104.251 557.627 104.546 557.431 104.901L551.59 115.677C551.218 116.395 550.615 116.969 549.877 117.306C549.14 117.643 548.311 117.724 547.522 117.537L547.492 117.53C546.694 117.362 545.975 116.93 545.452 116.305C544.928 115.679 544.631 114.897 544.608 114.083L543.438 89.2076C543.424 88.8971 543.346 88.5929 543.209 88.3137C543.063 88.0375 542.864 87.7923 542.624 87.5917L526.173 74.1211C525.633 73.6784 525.228 73.0927 525.006 72.4311C524.783 71.7695 524.752 71.0587 524.916 70.3804C525.08 69.7021 525.432 69.0835 525.933 68.5957C526.433 68.1079 527.061 67.7705 527.744 67.6222ZM527.113 72.976L543.563 86.4462C543.777 86.6185 543.972 86.8142 544.142 87.0297C544.296 87.2212 544.428 87.4285 544.538 87.6481C544.652 87.873 544.743 88.1094 544.807 88.3534L544.805 88.3605C544.873 88.6147 544.913 88.8757 544.922 89.1385L546.092 114.014C546.102 114.503 546.278 114.974 546.592 115.35C546.906 115.726 547.339 115.984 547.819 116.082L547.834 116.085C548.308 116.202 548.807 116.156 549.251 115.955C549.696 115.754 550.059 115.408 550.281 114.975L556.124 104.193C556.425 103.638 556.863 103.169 557.396 102.831C557.93 102.493 558.541 102.296 559.173 102.26L559.179 102.261C559.265 102.257 559.349 102.253 559.432 102.256C560.021 102.257 560.601 102.401 561.122 102.675C561.486 102.864 561.814 103.114 562.092 103.414L590.609 133.405C590.856 133.665 591.163 133.861 591.503 133.977C591.842 134.093 592.205 134.126 592.56 134.072C592.915 134.019 593.252 133.88 593.542 133.669C593.833 133.458 594.067 133.18 594.226 132.859L635.282 49.6976C635.465 49.3218 635.539 48.9022 635.495 48.4866C635.451 48.0711 635.291 47.6761 635.033 47.3468C634.775 47.0175 634.429 46.7671 634.036 46.624C633.642 46.4809 633.216 46.4509 632.806 46.5375L631.432 46.8334L528.063 69.0752C527.652 69.1638 527.275 69.3659 526.975 69.6583C526.674 69.9508 526.462 70.3218 526.363 70.7288C526.264 71.1359 526.282 71.5626 526.414 71.96C526.547 72.3574 526.789 72.7095 527.113 72.976H527.113Z" fill="#3F3D56"/>
<path d="M543.812 87.1771L544.427 88.5282L544.806 88.3613L544.808 88.3541L631.929 48.9489L559.181 102.262L559.174 102.26L558.982 102.408L559.859 103.605L561.123 102.676L632.813 50.1481C633.094 49.9457 633.296 49.6517 633.384 49.3167C633.471 48.9817 633.438 48.6268 633.291 48.3133C633.144 47.9998 632.892 47.7473 632.578 47.5994C632.265 47.4515 631.909 47.4176 631.573 47.5034C631.491 47.5235 631.41 47.5515 631.334 47.5872L544.143 87.0294L543.812 87.1771Z" fill="#3F3D56"/>
<path d="M502.784 228.56C509.173 221.308 518.211 218.369 526.381 216.828C536.529 214.914 546.825 214.924 556.98 213.076C565.18 211.584 573.942 208.704 580.61 201.955C583.431 199.21 585.426 195.733 586.37 191.916C587.222 187.919 586.808 183.757 585.186 180.004C583.38 175.7 580.498 172.272 577.468 169.463C573.987 166.283 570.039 163.653 565.762 161.663C556.755 157.382 547.284 155.153 538.058 151.867C533.534 150.256 528.963 148.489 524.762 145.722C521.203 143.377 517.325 140.216 515.344 135.517C511.259 125.82 521.006 120.041 526.529 117.851C530.283 116.431 534.15 115.326 538.089 114.549C538.922 114.371 538.569 112.713 537.739 112.89C533.593 113.697 529.53 114.88 525.601 116.426C522.27 117.807 518.834 119.62 516.217 122.742C515.026 124.151 514.145 125.795 513.632 127.566C513.119 129.336 512.985 131.195 513.239 133.021C513.931 137.673 516.944 141.259 519.774 143.856C523.514 147.289 527.78 149.532 532.105 151.36C536.661 153.285 541.311 154.785 545.961 156.257C555.252 159.198 564.96 161.819 573.348 168.077C579.215 172.454 587.186 180.661 585.234 190.837C584.369 195.355 581.737 198.884 578.898 201.481C575.564 204.442 571.719 206.774 567.551 208.365C548.964 215.826 528.508 210.489 510.4 220.625C507.192 222.42 502.064 227.114 502.064 227.114C502.064 227.114 501.548 229.963 502.784 228.56Z" fill="#D6D6E3"/>
<path d="M609.566 158.294C622.139 158.294 632.331 148.127 632.331 135.586C632.331 123.045 622.139 112.879 609.566 112.879C596.993 112.879 586.801 123.045 586.801 135.586C586.801 148.127 596.993 158.294 609.566 158.294Z" fill="#023E8A"/>
<path d="M606.461 147.403C606.068 147.403 605.681 147.311 605.329 147.136C604.977 146.96 604.672 146.706 604.436 146.392L598.225 138.131C597.822 137.595 597.649 136.921 597.744 136.258C597.839 135.595 598.194 134.997 598.732 134.595C599.269 134.193 599.944 134.02 600.609 134.115C601.274 134.21 601.874 134.564 602.277 135.1L606.34 140.505L616.776 124.891C617.15 124.337 617.729 123.953 618.386 123.824C619.043 123.694 619.724 123.83 620.282 124.2C620.839 124.57 621.226 125.146 621.359 125.8C621.492 126.455 621.36 127.135 620.992 127.693L608.57 146.278C608.346 146.614 608.043 146.891 607.689 147.087C607.335 147.282 606.938 147.39 606.534 147.402L606.461 147.403Z" fill="white"/>
<path d="M455.781 260.787C455.542 260.417 455.398 259.993 455.364 259.554C455.33 259.114 455.407 258.673 455.586 258.271L458.645 251.465C454.431 247.731 451.748 242.578 451.109 236.992C450.469 231.407 451.92 225.782 455.182 221.198C458.444 216.613 463.288 213.391 468.785 212.15C474.282 210.908 480.045 211.735 484.968 214.47C489.892 217.206 493.63 221.658 495.466 226.973C497.301 232.288 497.105 238.093 494.915 243.272C492.725 248.452 488.695 252.643 483.597 255.042C478.5 257.441 472.694 257.878 467.294 256.27L459.489 261.54C459.198 261.739 458.869 261.878 458.523 261.948C458.177 262.018 457.821 262.018 457.475 261.948C457.129 261.878 456.8 261.739 456.509 261.539C456.218 261.34 455.97 261.084 455.781 260.787H455.781ZM455.276 228.04C453.935 231.868 453.821 236.018 454.95 239.914C456.079 243.81 458.395 247.259 461.577 249.783L462.542 250.55L459.251 257.873L466.802 252.774L467.547 253.024C470.241 253.927 473.099 254.234 475.923 253.925C478.748 253.616 481.471 252.698 483.904 251.235C486.338 249.772 488.423 247.799 490.016 245.452C491.609 243.105 492.671 240.44 493.129 237.643C493.587 234.846 493.43 231.983 492.668 229.253C491.906 226.522 490.559 223.99 488.718 221.831C486.878 219.671 484.589 217.937 482.01 216.748C479.431 215.559 476.623 214.943 473.782 214.944H473.77C469.707 214.944 465.744 216.205 462.43 218.551C459.117 220.897 456.616 224.213 455.276 228.04ZM479.611 233.44C479.611 232.813 479.798 232.2 480.147 231.678C480.496 231.157 480.993 230.751 481.574 230.511C482.154 230.271 482.794 230.208 483.41 230.33C484.027 230.452 484.593 230.755 485.038 231.198C485.483 231.641 485.785 232.207 485.908 232.822C486.031 233.437 485.968 234.074 485.727 234.654C485.486 235.233 485.079 235.728 484.556 236.077C484.033 236.425 483.418 236.611 482.79 236.611C482.372 236.611 481.959 236.529 481.573 236.37C481.187 236.211 480.837 235.977 480.542 235.683C480.246 235.389 480.012 235.039 479.852 234.654C479.692 234.27 479.61 233.857 479.61 233.441L479.611 233.44ZM470.604 233.44C470.604 232.813 470.79 232.2 471.14 231.678C471.489 231.157 471.985 230.751 472.566 230.511C473.147 230.271 473.786 230.208 474.403 230.33C475.02 230.452 475.586 230.754 476.031 231.198C476.475 231.641 476.778 232.206 476.901 232.821C477.023 233.437 476.96 234.074 476.72 234.654C476.479 235.233 476.072 235.728 475.549 236.077C475.026 236.425 474.411 236.611 473.783 236.611C472.94 236.611 472.131 236.277 471.535 235.683C470.939 235.088 470.604 234.282 470.603 233.441L470.604 233.44ZM461.597 233.44C461.597 232.813 461.783 232.2 462.132 231.678C462.482 231.157 462.978 230.751 463.559 230.511C464.14 230.271 464.779 230.208 465.396 230.33C466.013 230.452 466.579 230.754 467.024 231.198C467.468 231.641 467.771 232.206 467.894 232.821C468.016 233.437 467.953 234.074 467.713 234.654C467.472 235.233 467.065 235.728 466.542 236.077C466.019 236.425 465.404 236.611 464.776 236.611C464.358 236.611 463.945 236.529 463.559 236.37C463.173 236.211 462.823 235.977 462.528 235.683C462.232 235.389 461.998 235.039 461.838 234.654C461.678 234.27 461.596 233.857 461.596 233.441L461.597 233.44Z" fill="#3F3D56"/>
</g>
<g clip-path="url(#clip2_421_1577)">
<path d="M281.627 320.606H132.236C129.445 320.606 127.184 322.87 127.184 325.662V417.774C127.184 420.567 129.445 422.83 132.236 422.83H281.627C284.417 422.83 286.679 420.567 286.679 417.774V325.662C286.679 322.87 284.417 320.606 281.627 320.606Z" fill="#E6E6E6"/>
<path d="M278.133 333.428H135.842C133.61 333.428 131.801 335.239 131.801 337.473V412.738C131.801 414.972 133.61 416.783 135.842 416.783H278.133C280.365 416.783 282.175 414.972 282.175 412.738V337.473C282.175 335.239 280.365 333.428 278.133 333.428Z" fill="white"/>
<path d="M148.565 360.064H265.435C269.123 360.064 272.113 360.776 272.113 361.655V411.482C272.113 412.361 269.123 413.073 265.435 413.073H148.565C144.877 413.071 141.887 412.359 141.887 411.482V361.655C141.887 360.776 144.877 360.064 148.565 360.064Z" fill="#E6E6E6"/>
<path d="M148.565 341.479H265.435C269.123 341.479 272.113 341.681 272.113 341.93V356.068C272.113 356.318 269.123 356.52 265.435 356.52H148.565C144.877 356.52 141.887 356.318 141.887 356.068V341.93C141.887 341.681 144.877 341.479 148.565 341.479Z" fill="#E6E6E6"/>
<path d="M128.918 320.516H284.811C285.289 320.516 285.747 320.706 286.084 321.044C286.422 321.382 286.611 321.84 286.611 322.318V327.297H127.117V322.318C127.117 321.84 127.307 321.382 127.645 321.044C127.982 320.706 128.441 320.516 128.918 320.516Z" fill="#023E8A"/>
<path d="M132.154 325.239C132.848 325.239 133.41 324.677 133.41 323.983C133.41 323.288 132.848 322.726 132.154 322.726C131.461 322.726 130.898 323.288 130.898 323.983C130.898 324.677 131.461 325.239 132.154 325.239Z" fill="white"/>
<path d="M136.92 325.239C137.614 325.239 138.176 324.677 138.176 323.983C138.176 323.288 137.614 322.726 136.92 322.726C136.226 322.726 135.664 323.288 135.664 323.983C135.664 324.677 136.226 325.239 136.92 325.239Z" fill="white"/>
<path d="M141.686 325.239C142.379 325.239 142.942 324.677 142.942 323.983C142.942 323.288 142.379 322.726 141.686 322.726C140.992 322.726 140.43 323.288 140.43 323.983C140.43 324.677 140.992 325.239 141.686 325.239Z" fill="white"/>
<path d="M209.013 364.793C206.043 362.285 202.408 360.695 198.552 360.216C194.695 359.738 190.783 360.391 187.291 362.097C183.799 363.803 180.878 366.488 178.883 369.826C176.888 373.163 175.905 377.009 176.054 380.895C176.203 384.781 177.477 388.54 179.722 391.714C181.967 394.888 185.086 397.341 188.698 398.774C192.311 400.207 196.262 400.559 200.07 399.786C203.879 399.013 207.38 397.148 210.15 394.42L234.738 415.183C234.923 415.34 235.138 415.459 235.369 415.532C235.6 415.606 235.843 415.634 236.085 415.614C236.327 415.593 236.562 415.526 236.778 415.414C236.993 415.303 237.185 415.15 237.341 414.965C237.498 414.779 237.617 414.565 237.69 414.334C237.764 414.102 237.792 413.859 237.771 413.617C237.751 413.375 237.683 413.139 237.572 412.924C237.461 412.708 237.308 412.516 237.123 412.36H237.121L212.532 391.596C215.388 387.494 216.61 382.471 215.959 377.514C215.308 372.556 212.831 368.02 209.012 364.795L209.013 364.793ZM207.427 389.595C205.512 391.866 202.966 393.519 200.112 394.343C197.258 395.167 194.224 395.125 191.394 394.223C188.564 393.322 186.064 391.6 184.211 389.277C182.358 386.954 181.236 384.133 180.985 381.171C180.734 378.209 181.367 375.239 182.802 372.637C184.238 370.035 186.413 367.917 189.051 366.552C191.69 365.186 194.674 364.635 197.625 364.966C200.577 365.298 203.364 366.498 205.634 368.415C207.142 369.688 208.384 371.246 209.29 372.999C210.196 374.752 210.748 376.667 210.914 378.633C211.081 380.6 210.858 382.58 210.26 384.461C209.662 386.342 208.699 388.086 207.427 389.595Z" fill="#090814"/>
<path d="M510.418 435.116C510.418 435.116 490.469 414.534 484.66 398.739C489.892 394.443 493.553 388.533 495.072 381.933C496.591 375.333 495.882 368.416 493.056 362.262C490.231 356.108 485.447 351.065 479.453 347.92C473.46 344.776 466.594 343.707 459.929 344.882C453.264 346.056 447.176 349.407 442.616 354.411C438.056 359.415 435.281 365.791 434.725 372.54C434.17 379.29 435.864 386.033 439.545 391.717C443.225 397.401 448.683 401.704 455.066 403.954L465.548 443.949L510.418 435.116Z" fill="#9F616A"/>
<path d="M467.017 330.049C466.82 327.555 466.783 326.318 467.337 324.681C468.511 321.208 469.751 317.617 472.284 314.976C476.111 310.994 482.207 309.976 487.68 310.716C494.712 311.666 501.651 315.468 504.924 321.78C508.196 328.091 506.796 336.884 500.887 340.82C509.317 350.485 512.247 361.256 511.785 374.065C511.323 386.885 497.365 398.675 488.261 407.707C486.23 406.48 484.382 400.697 485.502 398.597C486.621 396.497 485.014 394.069 486.399 392.126C487.784 390.198 488.945 393.274 487.547 391.347C486.663 390.134 490.106 387.347 488.801 386.621C482.455 383.109 480.344 375.187 476.358 369.128C473.919 365.477 470.704 362.412 466.943 360.15C463.182 357.888 458.968 356.487 454.603 356.045C449.801 355.596 444.735 356.415 440.805 359.2C436.876 361.986 434.327 366.966 435.236 371.703C434.048 370.498 433.151 369.037 432.614 367.433C432.076 365.828 431.913 364.121 432.136 362.443C432.358 360.765 432.962 359.161 433.899 357.752C434.836 356.343 436.083 355.167 437.544 354.315C436.689 351.371 436.594 348.259 437.268 345.268C437.941 342.278 439.362 339.508 441.396 337.216C445.499 332.688 462.136 333.466 468.126 334.655C467.533 333.182 467.16 331.63 467.017 330.049Z" fill="#090814"/>
<path d="M468.605 356.213C476.533 357.073 482.261 363.948 487.102 370.301C489.886 373.958 492.815 377.998 492.736 382.606C492.67 387.254 489.556 391.251 488.066 395.65C486.907 399.285 486.83 403.179 487.845 406.858C488.859 410.536 490.921 413.839 493.778 416.365C488.066 417.448 481.891 413.171 480.915 407.428C479.768 400.76 484.821 394.317 484.227 387.57C483.699 381.629 479.016 377.061 475.047 372.612C471.063 368.162 467.329 362.273 469.163 356.594L468.612 356.211L468.605 356.213Z" fill="#090814"/>
<path d="M435.957 464.981L438.045 508.866C438.045 508.866 437 566.334 446.398 570.514C451.147 572.622 447.009 588.228 455.83 592.868C462.449 596.336 463.569 589.701 467.036 592.868C467.955 593.65 468.747 594.57 469.385 595.595C473.562 602.909 519.484 600.817 525.748 595.591C532.011 590.365 527.836 601.86 533.057 603.95C538.109 605.977 545.115 589.406 540.825 564.663C540.689 563.839 540.532 563.002 540.37 562.155C535.578 538.177 543.106 480.739 541.946 458.546C541.879 456.851 541.701 455.162 541.414 453.49C538.281 436.773 498.314 402.752 490.842 417.244C481.633 435.133 460.479 418.791 456.847 410.655C435.965 409.61 428.656 434.687 428.656 434.687L435.957 464.981Z" fill="#D6D6E3"/>
<path d="M324.265 461.184L318.538 484.83C318.474 485.093 318.484 485.369 318.566 485.628L344.55 566.887C344.654 567.208 344.864 567.485 345.146 567.67C345.428 567.855 345.765 567.938 346.101 567.904C346.436 567.871 346.75 567.724 346.991 567.487C347.231 567.251 347.383 566.939 347.422 566.604L351.017 534.949C351.041 534.739 351.019 534.527 350.954 534.326L327.103 461.076C327.003 460.771 326.806 460.508 326.543 460.326C326.28 460.143 325.964 460.051 325.644 460.063C325.325 460.076 325.017 460.192 324.769 460.394C324.521 460.597 324.345 460.874 324.268 461.185L324.265 461.184Z" fill="#090814"/>
<path d="M326.371 463.178L321.082 483.464L344 557.562L349.288 534.628L326.371 463.178Z" fill="#023E8A"/>
<path d="M441.84 573.443C440.958 576.088 350.171 572.56 349.291 571.678C348.523 570.573 347.873 569.391 347.352 568.15C346.523 566.386 345.766 564.622 345.766 564.622L349.291 536.061L439.196 532.868C439.196 532.868 441.444 557.07 441.902 568.152C442.058 569.913 442.037 571.686 441.84 573.444V573.443Z" fill="#090814"/>
<path opacity="0.1" d="M360.748 539.921L358.984 564.62H398.651V539.921H360.748Z" fill="#D6D6E3"/>
<path opacity="0.1" d="M411.87 547.859L411.633 547.811L412.753 558.443H434.793V547.859H411.87Z" fill="black"/>
<path opacity="0.1" d="M441.84 573.436C440.958 576.082 350.171 572.554 349.291 571.671C348.522 570.567 347.872 569.384 347.352 568.143H441.902C442.058 569.905 442.037 571.678 441.84 573.436Z" fill="black"/>
<path d="M430.734 524.54L402.543 539.169C402.543 539.169 385.838 521.405 375.399 534.989C364.961 548.572 405.678 552.752 405.678 552.752C405.678 552.752 441.178 544.393 442.221 532.9C443.263 521.407 430.734 524.54 430.734 524.54Z" fill="#9F616A"/>
<path d="M441.179 425.279C440.135 426.324 428.65 434.683 428.65 434.683C428.65 434.683 425.518 474.387 429.694 482.747C433.871 491.107 437.003 491.106 433.871 495.285C430.739 499.465 426.562 496.33 430.739 503.645C434.915 510.959 439.092 509.914 435.957 513.049C432.822 516.183 433.869 517.228 433.869 517.228L421.34 527.677C421.34 527.677 429.027 539.928 438.757 539.024C448.487 538.12 456.84 491.104 456.84 491.104L441.179 425.279Z" fill="#D6D6E3"/>
<path d="M457.033 586.764C454.053 586.764 452.577 582.051 449.12 578.701C446.176 575.848 441.264 574.353 438.132 574.126C393 570.896 337.699 569.634 337.699 569.634C337.699 569.634 348.41 582.825 348.41 591.285C348.41 609.366 370.996 604.105 458.925 604.105C546.854 604.105 560.997 627.16 560.997 609.077C560.997 590.994 544.962 586.764 457.033 586.764Z" fill="#F2F2F2"/>
<path d="M477.72 563.201L461.014 567.38C461.014 567.38 442.221 544.393 422.384 552.752C402.547 561.111 447.442 577.829 447.442 577.829C447.442 577.829 471.456 590.367 480.853 579.919C490.25 569.47 477.72 563.201 477.72 563.201Z" fill="#9F616A"/>
<path d="M533.057 450.354L542.454 453.485C542.454 453.485 567.512 545.434 538.277 561.107C509.043 576.78 476.675 592.453 475.632 588.272C474.588 584.09 463.102 567.374 466.235 565.285C469.367 563.196 515.306 538.12 515.306 538.12V467.07L533.057 450.354Z" fill="#D6D6E3"/>
<path opacity="0.1" d="M518.965 488.493L521.051 538.647L465.715 564.768L516.877 538.645L518.965 488.493Z" fill="black"/>
<path d="M315.032 412.252H258.329C253.865 412.252 250.246 415.874 250.246 420.341V422.325C250.246 426.792 253.865 430.414 258.329 430.414H315.032C319.496 430.414 323.115 426.792 323.115 422.325V420.341C323.115 415.874 319.496 412.252 315.032 412.252Z" fill="#090814"/>
<path d="M314.712 413.078H258.648C254.463 413.078 251.07 416.473 251.07 420.661V422.005C251.07 426.193 254.463 429.588 258.648 429.588H314.712C318.897 429.588 322.29 426.193 322.29 422.005V420.661C322.29 416.473 318.897 413.078 314.712 413.078Z" fill="white"/>
<path d="M256.901 415.801H263.481C264.063 415.801 264.621 416.032 265.032 416.444C265.443 416.856 265.675 417.414 265.675 417.996V424.582C265.675 425.164 265.443 425.722 265.032 426.134C264.621 426.546 264.063 426.777 263.481 426.777H256.901C256.319 426.777 255.761 426.546 255.35 426.134C254.938 425.722 254.707 425.164 254.707 424.582V417.996C254.707 417.414 254.938 416.856 255.35 416.444C255.761 416.032 256.319 415.801 256.901 415.801Z" fill="#023E8A"/>
<path d="M271.16 416.716H304.062C304.547 416.716 305.012 416.908 305.355 417.251C305.697 417.595 305.89 418.06 305.89 418.545C305.89 419.03 305.697 419.495 305.355 419.838C305.012 420.181 304.547 420.374 304.062 420.374H271.16C270.675 420.374 270.21 420.181 269.867 419.838C269.525 419.495 269.332 419.03 269.332 418.545C269.332 418.06 269.525 417.595 269.867 417.251C270.21 416.908 270.675 416.716 271.16 416.716Z" fill="#E6E6E6"/>
<path d="M271.16 422.204H289.439C289.924 422.204 290.389 422.397 290.732 422.74C291.075 423.083 291.267 423.548 291.267 424.033C291.267 424.518 291.075 424.983 290.732 425.326C290.389 425.669 289.924 425.862 289.439 425.862H271.16C270.675 425.862 270.21 425.669 269.867 425.326C269.525 424.983 269.332 424.518 269.332 424.033C269.332 423.548 269.525 423.083 269.867 422.74C270.21 422.397 270.675 422.204 271.16 422.204Z" fill="#E6E6E6"/>
<path d="M259.697 307H202.72C198.256 307 194.637 310.622 194.637 315.089V317.073C194.637 321.54 198.256 325.162 202.72 325.162H259.697C264.162 325.162 267.781 321.54 267.781 317.073V315.089C267.781 310.622 264.162 307 259.697 307Z" fill="#090814"/>
<path d="M259.103 307.826H203.039C198.854 307.826 195.461 311.221 195.461 315.409V316.753C195.461 320.941 198.854 324.336 203.039 324.336H259.103C263.288 324.336 266.681 320.941 266.681 316.753V315.409C266.681 311.221 263.288 307.826 259.103 307.826Z" fill="white"/>
<path d="M201.369 310.652H207.95C208.532 310.652 209.089 310.883 209.501 311.295C209.912 311.706 210.143 312.265 210.143 312.847V319.432C210.143 320.015 209.912 320.573 209.501 320.985C209.089 321.396 208.532 321.628 207.95 321.628H201.369C200.788 321.628 200.23 321.396 199.818 320.985C199.407 320.573 199.176 320.015 199.176 319.432V312.847C199.176 312.265 199.407 311.706 199.818 311.295C200.23 310.883 200.788 310.652 201.369 310.652Z" fill="#023E8A"/>
<path d="M215.625 311.566H248.527C249.012 311.566 249.477 311.759 249.819 312.102C250.162 312.445 250.355 312.91 250.355 313.395C250.355 313.88 250.162 314.346 249.819 314.689C249.477 315.032 249.012 315.224 248.527 315.224H215.625C215.14 315.224 214.675 315.032 214.332 314.689C213.989 314.346 213.797 313.88 213.797 313.395C213.797 312.91 213.989 312.445 214.332 312.102C214.675 311.759 215.14 311.566 215.625 311.566Z" fill="#E6E6E6"/>
<path d="M215.625 317.054H233.904C234.389 317.054 234.854 317.246 235.197 317.589C235.539 317.932 235.732 318.398 235.732 318.883C235.732 319.368 235.539 319.833 235.197 320.176C234.854 320.519 234.389 320.712 233.904 320.712H215.625C215.14 320.712 214.675 320.519 214.332 320.176C213.989 319.833 213.797 319.368 213.797 318.883C213.797 318.398 213.989 317.932 214.332 317.589C214.675 317.246 215.14 317.054 215.625 317.054Z" fill="#E6E6E6"/>
<path d="M153.045 347.897H96.0677C91.6034 347.897 87.9844 351.518 87.9844 355.986V357.969C87.9844 362.437 91.6034 366.059 96.0677 366.059H153.045C157.509 366.059 161.128 362.437 161.128 357.969V355.986C161.128 351.518 157.509 347.897 153.045 347.897Z" fill="#090814"/>
<path d="M152.45 348.722H96.3867C92.2014 348.722 88.8086 352.118 88.8086 356.306V357.649C88.8086 361.838 92.2014 365.233 96.3867 365.233H152.45C156.635 365.233 160.028 361.838 160.028 357.649V356.306C160.028 352.118 156.635 348.722 152.45 348.722Z" fill="white"/>
<path d="M94.7014 351.558H101.282C101.864 351.558 102.422 351.789 102.833 352.201C103.244 352.612 103.475 353.171 103.475 353.753V360.338C103.475 360.92 103.244 361.479 102.833 361.89C102.422 362.302 101.864 362.533 101.282 362.533H94.7014C94.1196 362.533 93.5617 362.302 93.1503 361.89C92.7389 361.479 92.5078 360.92 92.5078 360.338V353.753C92.5078 353.171 92.7389 352.612 93.1503 352.201C93.5617 351.789 94.1196 351.558 94.7014 351.558Z" fill="#023E8A"/>
<path d="M108.957 352.473H141.859C142.344 352.473 142.809 352.665 143.151 353.008C143.494 353.352 143.687 353.817 143.687 354.302C143.687 354.787 143.494 355.252 143.151 355.595C142.809 355.938 142.344 356.131 141.859 356.131H108.957C108.472 356.131 108.007 355.938 107.664 355.595C107.321 355.252 107.129 354.787 107.129 354.302C107.129 353.817 107.321 353.352 107.664 353.008C108.007 352.665 108.472 352.473 108.957 352.473Z" fill="#E6E6E6"/>
<path d="M108.957 357.96H127.236C127.721 357.96 128.186 358.153 128.529 358.496C128.871 358.839 129.064 359.304 129.064 359.79C129.064 360.275 128.871 360.74 128.529 361.083C128.186 361.426 127.721 361.619 127.236 361.619H108.957C108.472 361.619 108.007 361.426 107.664 361.083C107.321 360.74 107.129 360.275 107.129 359.79C107.129 359.304 107.321 358.839 107.664 358.496C108.007 358.153 108.472 357.96 108.957 357.96Z" fill="#E6E6E6"/>
<path d="M331.311 367.154H274.333C269.869 367.154 266.25 370.776 266.25 375.244V377.502C266.25 381.97 269.869 385.591 274.333 385.591H331.311C335.775 385.591 339.394 381.97 339.394 377.502V375.244C339.394 370.776 335.775 367.154 331.311 367.154Z" fill="#090814"/>
<path d="M330.993 368.255H274.93C270.744 368.255 267.352 371.65 267.352 375.839V377.182C267.352 381.37 270.744 384.766 274.93 384.766H330.993C335.178 384.766 338.571 381.37 338.571 377.182V375.839C338.571 371.65 335.178 368.255 330.993 368.255Z" fill="white"/>
<path d="M273.135 370.917H279.715C280.297 370.917 280.855 371.149 281.266 371.56C281.678 371.972 281.909 372.53 281.909 373.113V379.698C281.909 380.28 281.678 380.838 281.266 381.25C280.855 381.662 280.297 381.893 279.715 381.893H273.135C272.553 381.893 271.995 381.662 271.584 381.25C271.173 380.838 270.941 380.28 270.941 379.698V373.113C270.941 372.53 271.173 371.972 271.584 371.56C271.995 371.149 272.553 370.917 273.135 370.917Z" fill="#023E8A"/>
<path d="M287.394 371.833H320.296C320.781 371.833 321.246 372.025 321.589 372.368C321.932 372.711 322.124 373.177 322.124 373.662C322.124 374.147 321.932 374.612 321.589 374.955C321.246 375.298 320.781 375.491 320.296 375.491H287.394C286.909 375.491 286.445 375.298 286.102 374.955C285.759 374.612 285.566 374.147 285.566 373.662C285.566 373.177 285.759 372.711 286.102 372.368C286.445 372.025 286.909 371.833 287.394 371.833Z" fill="#E6E6E6"/>
<path d="M287.394 377.32H305.674C306.158 377.32 306.623 377.513 306.966 377.856C307.309 378.199 307.502 378.664 307.502 379.149C307.502 379.634 307.309 380.1 306.966 380.443C306.623 380.786 306.158 380.979 305.674 380.979H287.394C286.909 380.979 286.445 380.786 286.102 380.443C285.759 380.1 285.566 379.634 285.566 379.149C285.566 378.664 285.759 378.199 286.102 377.856C286.445 377.513 286.909 377.32 287.394 377.32Z" fill="#E6E6E6"/>
<path d="M141.061 394.09H84.0833C79.619 394.09 76 397.712 76 402.179V404.163C76 408.63 79.619 412.252 84.0833 412.252H141.061C145.525 412.252 149.144 408.63 149.144 404.163V402.179C149.144 397.712 145.525 394.09 141.061 394.09Z" fill="#090814"/>
<path d="M140.741 394.915H84.4023C80.2171 394.915 76.8242 398.311 76.8242 402.499V403.842C76.8242 408.031 80.2171 411.426 84.4023 411.426H140.741C144.926 411.426 148.319 408.031 148.319 403.842V402.499C148.319 398.311 144.926 394.915 140.741 394.915Z" fill="white"/>
<path d="M82.7639 397.68H89.3443C89.926 397.68 90.484 397.912 90.8954 398.323C91.3068 398.735 91.5379 399.293 91.5379 399.876V406.461C91.5379 407.043 91.3068 407.601 90.8954 408.013C90.484 408.425 89.926 408.656 89.3443 408.656H82.7639C82.1821 408.656 81.6242 408.425 81.2128 408.013C80.8014 407.601 80.5703 407.043 80.5703 406.461V399.876C80.5703 399.293 80.8014 398.735 81.2128 398.323C81.6242 397.912 82.1821 397.68 82.7639 397.68Z" fill="#023E8A"/>
<path d="M97.0192 398.595H129.921C130.406 398.595 130.871 398.788 131.214 399.131C131.557 399.474 131.749 399.939 131.749 400.424C131.749 400.909 131.557 401.375 131.214 401.718C130.871 402.061 130.406 402.253 129.921 402.253H97.0192C96.5345 402.253 96.0696 402.061 95.7268 401.718C95.384 401.375 95.1914 400.909 95.1914 400.424C95.1914 399.939 95.384 399.474 95.7268 399.131C96.0696 398.788 96.5345 398.595 97.0192 398.595Z" fill="#E6E6E6"/>
<path d="M97.0192 404.083H115.299C115.783 404.083 116.248 404.276 116.591 404.619C116.934 404.962 117.127 405.427 117.127 405.912C117.127 406.397 116.934 406.863 116.591 407.206C116.248 407.549 115.783 407.742 115.299 407.742H97.0192C96.5345 407.742 96.0696 407.549 95.7268 407.206C95.384 406.863 95.1914 406.397 95.1914 405.912C95.1914 405.427 95.384 404.962 95.7268 404.619C96.0696 404.276 96.5345 404.083 97.0192 404.083Z" fill="#E6E6E6"/>
</g>
<defs>
<clipPath id="clip0_421_1577">
<rect width="451" height="307" fill="white" transform="matrix(-1 0 0 1 451 0)"/>
</clipPath>
<clipPath id="clip1_421_1577">
<rect width="186" height="217" fill="white" transform="translate(451 45)"/>
</clipPath>
<clipPath id="clip2_421_1577">
<rect width="485" height="309" fill="white" transform="translate(76 307)"/>
</clipPath>
</defs>
</svg>
