<svg width="9935" height="1285" viewBox="0 0 9935 1285" fill="none" xmlns="http://www.w3.org/2000/svg">
<path d="M638.5 1061.11V1063H352.5V1061.01L352.469 1061.02L226.833 706H392.312L463.442 907H527.738L678.898 482H844.473L638.5 1061.11ZM512.289 748H478.846L439.771 638H190C165.049 638 140.342 633.086 117.29 623.537C94.2382 613.989 73.2925 599.994 55.6494 582.351C38.0063 564.707 24.0113 543.762 14.4629 520.71C4.91451 497.658 -4.22727e-10 472.951 0 448C6.64291e-06 423.049 4.91449 398.342 14.4629 375.29C24.0113 352.238 38.0063 331.293 55.6494 313.649C73.2925 296.006 94.2382 282.011 117.29 272.463C140.342 262.915 165.049 258 190 258H687L631.574 414H190V413.99C185.534 413.99 181.112 414.87 176.985 416.579C172.859 418.288 169.109 420.793 165.951 423.951C162.793 427.109 160.288 430.859 158.579 434.985C156.87 439.112 155.99 443.534 155.99 448C155.99 452.466 156.87 456.888 158.579 461.015C160.288 465.141 162.793 468.891 165.951 472.049C169.109 475.207 172.859 477.712 176.985 479.421C181.112 481.13 185.534 482.01 190 482.01V482H607.209L551.819 638H551.796L512.289 748Z" fill="#D7FE3F"/>
<path d="M1381.47 1050C1334.81 1050 1290.81 1041.67 1249.47 1025C1208.81 1007.67 1173.47 983.333 1143.47 952C1114.14 920.667 1092.14 883.667 1077.47 841L1204.47 784C1223.14 824.667 1248.81 856.667 1281.47 880C1314.81 903.333 1351.47 915 1391.47 915C1412.81 915 1431.14 911.667 1446.47 905C1461.81 898.333 1473.81 889.333 1482.47 878C1491.14 866 1495.47 852 1495.47 836C1495.47 818.667 1490.14 804 1479.47 792C1468.81 779.333 1452.14 769.333 1429.47 762L1283.47 714C1224.14 694.667 1179.47 667.333 1149.47 632C1119.47 596 1104.47 553 1104.47 503C1104.47 459 1115.14 420.333 1136.47 387C1158.47 353.667 1188.81 327.667 1227.47 309C1266.81 290.333 1311.81 281 1362.47 281C1407.14 281 1448.47 288.667 1486.47 304C1524.47 319.333 1557.14 341 1584.47 369C1612.47 397 1633.47 430.667 1647.47 470L1521.47 527C1507.47 492.333 1486.47 465.333 1458.47 446C1430.47 426 1398.47 416 1362.47 416C1341.81 416 1323.47 419.333 1307.47 426C1291.47 432.667 1279.14 442.333 1270.47 455C1261.81 467 1257.47 481 1257.47 497C1257.47 514.333 1263.14 529.667 1274.47 543C1285.81 555.667 1302.81 565.667 1325.47 573L1468.47 619C1528.47 638.333 1573.14 665.333 1602.47 700C1632.47 734.667 1647.47 777 1647.47 827C1647.47 870.333 1636.14 909 1613.47 943C1590.81 976.333 1559.47 1002.67 1519.47 1022C1480.14 1040.67 1434.14 1050 1381.47 1050ZM2130.93 1050C2074.93 1050 2022.93 1040.33 1974.93 1021C1926.93 1001.67 1884.93 974.667 1848.93 940C1813.6 904.667 1785.93 863.667 1765.93 817C1745.93 770.333 1735.93 719.667 1735.93 665C1735.93 610.333 1745.6 559.667 1764.93 513C1784.93 466.333 1812.6 425.667 1847.93 391C1883.93 356.333 1925.93 329.333 1973.93 310C2021.93 290.667 2074.27 281 2130.93 281C2187.6 281 2239.93 290.667 2287.93 310C2335.93 329.333 2377.6 356.333 2412.93 391C2448.93 425.667 2476.6 466.333 2495.93 513C2515.93 559.667 2525.93 610.333 2525.93 665C2525.93 719.667 2515.93 770.333 2495.93 817C2475.93 863.667 2447.93 904.667 2411.93 940C2376.6 974.667 2334.93 1001.67 2286.93 1021C2238.93 1040.33 2186.93 1050 2130.93 1050ZM2130.93 910C2164.93 910 2196.27 904 2224.93 892C2254.27 880 2279.93 863.333 2301.93 842C2323.93 820 2340.93 794 2352.93 764C2364.93 734 2370.93 701 2370.93 665C2370.93 629 2364.93 596.333 2352.93 567C2340.93 537 2323.93 511 2301.93 489C2279.93 467 2254.27 450.333 2224.93 439C2196.27 427 2164.93 421 2130.93 421C2096.93 421 2065.27 427 2035.93 439C2007.27 450.333 1981.93 467 1959.93 489C1937.93 511 1920.93 537 1908.93 567C1896.93 596.333 1890.93 629 1890.93 665C1890.93 701 1896.93 734 1908.93 764C1920.93 794 1937.93 820 1959.93 842C1981.93 863.333 2007.27 880 2035.93 892C2065.27 904 2096.93 910 2130.93 910ZM2635.86 1038V293H2790.86V903H3105.86V1038H2635.86ZM3182.74 1038V293H3337.74V1038H3182.74ZM3669.85 1038L3414.85 293H3584.85L3776.85 891H3742.85L3934.85 293H4104.85L3849.85 1038H3669.85ZM4086.72 1038L4338.72 293H4544.72L4796.72 1038H4627.72L4577.72 886H4304.72L4254.72 1038H4086.72ZM4347.72 751H4534.72L4420.72 399H4462.72L4347.72 751ZM4958.34 1038V428H4769.34V293H5299.34V428H5113.34V1038H4958.34ZM5376.1 1038V293H5877.1V428H5531.1V597H5857.1V732H5531.1V903H5877.1V1038H5376.1Z" fill="white"/>
<path d="M6538.47 1075C6491.14 1075 6448.14 1066 6409.47 1048C6370.81 1030 6338.14 1006 6311.47 976C6284.81 945.333 6265.81 911.667 6254.47 875L6326.47 848C6343.81 898.667 6370.81 937.333 6407.47 964C6444.14 990 6487.81 1003 6538.47 1003C6570.47 1003 6598.47 998 6622.47 988C6647.14 977.333 6666.14 962.667 6679.47 944C6692.81 925.333 6699.47 903.667 6699.47 879C6699.47 842.333 6689.47 814 6669.47 794C6649.47 774 6620.81 758.667 6583.47 748L6449.47 708C6396.81 692.667 6356.14 667 6327.47 631C6299.47 595 6285.47 554 6285.47 508C6285.47 468.667 6295.14 434 6314.47 404C6333.81 373.333 6360.14 349.333 6393.47 332C6427.47 314.667 6465.81 306 6508.47 306C6553.14 306 6593.14 314.333 6628.47 331C6664.47 347 6694.81 368.333 6719.47 395C6744.14 421.667 6761.81 451.333 6772.47 484L6702.47 512C6686.47 468 6661.47 434.667 6627.47 412C6594.14 389.333 6554.81 378 6509.47 378C6480.81 378 6455.47 383 6433.47 393C6412.14 403 6395.47 417.333 6383.47 436C6371.47 454.667 6365.47 476.667 6365.47 502C6365.47 532.667 6375.14 560.333 6394.47 585C6413.81 609 6443.47 627 6483.47 639L6601.47 674C6660.14 691.333 6704.47 716.333 6734.47 749C6764.47 781.667 6779.47 822.667 6779.47 872C6779.47 912 6769.14 947.333 6748.47 978C6728.47 1008 6700.14 1031.67 6663.47 1049C6627.47 1066.33 6585.81 1075 6538.47 1075ZM7062.96 1063V393H6856.96V318H7346.96V393H7142.96V1063H7062.96ZM7707.68 1075C7655.01 1075 7608.68 1064 7568.68 1042C7528.68 1020 7497.68 990 7475.68 952C7453.68 913.333 7442.68 869.333 7442.68 820V318H7522.68V820C7522.68 856 7530.34 887.667 7545.68 915C7561.68 941.667 7583.34 962.667 7610.68 978C7638.68 992.667 7671.01 1000 7707.68 1000C7744.34 1000 7776.34 992.667 7803.68 978C7831.68 962.667 7853.34 941.667 7868.68 915C7884.68 887.667 7892.68 856 7892.68 820V318H7972.68V820C7972.68 869.333 7961.68 913.333 7939.68 952C7917.68 990 7886.68 1020 7846.68 1042C7807.34 1064 7761.01 1075 7707.68 1075ZM8145.87 1063V318H8390.87C8464.87 318 8529.2 333.333 8583.87 364C8638.54 394 8680.87 437 8710.87 493C8740.87 548.333 8755.87 614 8755.87 690C8755.87 765.333 8740.87 831 8710.87 887C8680.87 943 8638.54 986.333 8583.87 1017C8529.2 1047.67 8464.87 1063 8390.87 1063H8145.87ZM8225.87 988H8390.87C8448.2 988 8497.87 976 8539.87 952C8581.87 927.333 8614.2 892.667 8636.87 848C8660.2 803.333 8671.87 750.667 8671.87 690C8671.87 629.333 8660.2 577 8636.87 533C8613.54 488.333 8580.87 454 8538.87 430C8496.87 405.333 8447.54 393 8390.87 393H8225.87V988ZM8888.06 1063V318H8968.06V1063H8888.06ZM9494.92 1075C9442.92 1075 9394.25 1065.67 9348.92 1047C9304.25 1027.67 9264.92 1001 9230.92 967C9196.92 932.333 9170.25 891.667 9150.92 845C9131.58 797.667 9121.92 746 9121.92 690C9121.92 634 9131.58 582.667 9150.92 536C9170.25 488.667 9196.92 448 9230.92 414C9264.92 379.333 9304.25 352.667 9348.92 334C9394.25 315.333 9442.92 306 9494.92 306C9546.92 306 9595.25 315.667 9639.92 335C9685.25 353.667 9724.92 380.333 9758.92 415C9792.92 449 9819.58 489.333 9838.92 536C9858.25 582.667 9867.92 634 9867.92 690C9867.92 746 9858.25 797.667 9838.92 845C9819.58 891.667 9792.92 932.333 9758.92 967C9724.92 1001 9685.25 1027.67 9639.92 1047C9595.25 1065.67 9546.92 1075 9494.92 1075ZM9494.92 1000C9538.25 1000 9577.58 992 9612.92 976C9648.92 960 9679.92 937.667 9705.92 909C9731.92 880.333 9751.92 847.333 9765.92 810C9780.58 772.667 9787.92 732.667 9787.92 690C9787.92 648 9780.58 608.333 9765.92 571C9751.92 533.667 9731.92 500.667 9705.92 472C9679.92 443.333 9648.92 421 9612.92 405C9577.58 389 9538.25 381 9494.92 381C9451.58 381 9411.92 389 9375.92 405C9340.58 421 9309.92 443.333 9283.92 472C9257.92 500.667 9237.58 533.667 9222.92 571C9208.92 608.333 9201.92 648 9201.92 690C9201.92 732.667 9208.92 772.667 9222.92 810C9237.58 847.333 9257.92 880.333 9283.92 909C9309.92 937.667 9340.92 960 9376.92 976C9412.92 992 9452.25 1000 9494.92 1000Z" fill="white"/>
</svg>
